<svg xmlns="http://www.w3.org/2000/svg" width="752.822" height="407" viewBox="0 0 752.822 407">
  <g id="Group_11" data-name="Group 11" transform="translate(-1605.256 -173.302)">
    <path id="Path_1" data-name="Path 1" d="M1642.572,578.187s-63.065-86.573-25.226-168.956,109.733-62.835,210.636-146.615c122.5-101.71,208.513-107.3,317.846-62.836,61.8,25.134,71.894,128.463,170.275,192.695,88.689,57.9,16.4,156.389-30.271,171.749s-78.2,15.36-78.2,15.36Z" transform="translate(0)" fill="#e7f3fe"/>
    <path id="Path_2" data-name="Path 2" d="M2305.58,539.2c-17.426,35.374-39.274,132.035-45.233,137.331s-40.385,25.821-46.344,35.751-3.31,6.621-.662,7.283,152.274,1.324,152.274,1.324-17.213-102.62-19.2-103.281S2305.58,539.2,2305.58,539.2Z" transform="translate(-286.345 -147.139)" fill="#a2dff2"/>
    <path id="Path_3" data-name="Path 3" d="M2328.154,720.41c27.48.192,56.479.343,72.443.422l-21.857-130.71c-11.657-22.6-25.809-50.921-25.809-50.921-2.2,4.459-4.464,9.893-6.761,16-2.266,98.174,11.874,125.691,1.253,143.184C2339.135,712.029,2331.57,718.136,2328.154,720.41Z" transform="translate(-336.476 -147.139)" fill="#96cfe0"/>
    <path id="Path_4" data-name="Path 4" d="M2280.812,846.6H1641.7c-2.722,0-4.929-2.482-4.929-5.542s2.207-5.542,4.929-5.542h639.113c2.722,0,4.93,2.481,4.93,5.542S2283.534,846.6,2280.812,846.6Z" transform="translate(-12.672 -266.295)" fill="#2e5b9a"/>
    <path id="Path_5" data-name="Path 5" d="M2461.208,467.79c24.853,22.94,80.169,44.694,80.169,44.694s8.405,77.653,2.67,121.622S2541.5,687,2541.5,687H2427.436s-15.309-21.244-43.332-87.3c-17.842-42.057-14.656-89.212-14.656-89.212l69.458-31.224Z" transform="translate(-363.285 -118.423)" fill="#a2dff2"/>
    <path id="Path_6" data-name="Path 6" d="M2457.312,718.541h114.063s-3.185-8.921,2.549-52.89c4.722-36.2-.142-95.247-2.007-114.969l-10.373-4.446c-26.042,7.5-41.05,46.347-45.464,84.307-2.954,25.4-45.033,50.4-72.558,64.169C2452.564,711.95,2457.312,718.541,2457.312,718.541Z" transform="translate(-394.715 -149.968)" fill="#96cfe0"/>
    <path id="Path_7" data-name="Path 7" d="M2416.127,334.475c-13.75,30.624,2.753,58.992,2.253,57.8s20.811-51.7,20.811-51.7Z" transform="translate(-372.09 -64.813)" fill="#2e5b9a"/>
    <path id="Path_8" data-name="Path 8" d="M2487.256,372.351l17.438,63.737a5.772,5.772,0,0,1-1.1,5.163c-4.091,5.038-9.914,15.4-21.662,18.727a29.119,29.119,0,0,1-7.376.827,4.977,4.977,0,0,1-4.913-4.028l-11.684-60.453Z" transform="translate(-395.142 -80.044)" fill="#f09959"/>
    <path id="Path_9" data-name="Path 9" d="M2483.926,381.261l-6.374,2.613-19.6,16.033,10.519,53.6C2486.313,442.382,2488.914,434.876,2483.926,381.261Z" transform="translate(-393.927 -83.627)" fill="#e38540"/>
    <path id="Path_10" data-name="Path 10" d="M2467.97,383.184c-3.86,20.967-19.55,35.148-35.044,31.673s-22.887-17.045-21.067-44.255c1.427-21.347,11.953-44.55,27.448-41.075S2471.829,362.217,2467.97,383.184Z" transform="translate(-374.292 -62.683)" fill="#f09959"/>
    <path id="Path_11" data-name="Path 11" d="M2577.393,542.186c23.078,5.211,27.366,52.085,34.87,101.521.863,5.69,5.3,53.851,5.3,53.851a14.741,14.741,0,0,1-8.387,13.242c-7.542,3.771-10.594,6.621-54.292,7.063-41.968.424-96.078-1.324-96.078-1.324s-.479-15.616,3.825-23.247c6.474-11.476,72.831-27.955,79.01-28.838.883-12.359-6.094-57.077,3.531-87.4,6.621-20.857,13.739-31.781,22.656-34.636A17.9,17.9,0,0,1,2577.393,542.186Z" transform="translate(-404.197 -148.125)" fill="#a2dff2"/>
    <path id="Path_12" data-name="Path 12" d="M2498.506,724.9c20.689.311,49.083.608,72.347.373,43.7-.441,46.749-3.291,54.292-7.063,8.828-4.414,9.269-11.917,9.269-11.917s-4.461-51.246-5.3-56.941c-4.856-33.1-10.1-70.986-22.312-89.272a249.615,249.615,0,0,1,13.531,74.148c.1,6.14-.462,14.547-2.254,20.421-1.986,6.51-7.063,10.594-15.008,8.386-15.89-4.414-35.753,4.855-35.753,4.855s15.008-5.3,29.132-.441,43.257,37.078,11.476,48.995C2598.205,720.092,2539.955,723.065,2498.506,724.9Z" transform="translate(-420.914 -155.535)" fill="#96cfe0"/>
    <path id="Path_13" data-name="Path 13" d="M2466.171,791.016s5.885-10,17.951-10,11.182,19.715,9.417,26.189-8.829,6.768-8.829,6.768l-25.9-1.177Z" transform="translate(-394.807 -244.378)" fill="#96cfe0"/>
    <path id="Rectangle_3" data-name="Rectangle 3" d="M5.119,0H167.078a5.12,5.12,0,0,1,5.12,5.12v0a5.119,5.119,0,0,1-5.119,5.119H5.119A5.119,5.119,0,0,1,0,5.12v0A5.119,5.119,0,0,1,5.119,0Z" transform="translate(1889.499 563.845)" fill="#75a1de"/>
    <path id="Path_14" data-name="Path 14" d="M2422.116,793.783c-25.307-9.122-31.946-5.688-37.666-7.357-14.125-4.119-17.656-.588-26.778,24.424-1.817,4.984,3.531,5.3,8.828,5.3s11.77-10.3,13.83-11.476,7.651-1.766,7.651-1.766-1.766,0-4.414,5.3-5.885,7.357-1.766,7.357,4.708-6.768,12.36-5.3,4.708,5.3,23.835,5,33.562,0,33.252-11.477c-.295-10.888.911-16.332-9.416-18.244C2433.887,784.072,2422.116,793.783,2422.116,793.783Z" transform="translate(-351.432 -245.968)" fill="#f09959"/>
    <path id="Path_15" data-name="Path 15" d="M2466.062,795.162c16.92-1.913,11.954,19.164,10.189,20.93s9.421.62,9.421.62a20.431,20.431,0,0,0,.842-18.166c-4.414-9.711-13.242-10.152-13.242-10.152l-7.5,4.119Z" transform="translate(-397.174 -247.347)" fill="#a86b48"/>
    <path id="Path_16" data-name="Path 16" d="M2483,792.884c-.219,2.612-4.657,4.373-9.914,3.935s-9.342-2.913-9.124-5.526,4.657-4.373,9.914-3.934S2483.217,790.272,2483,792.884Z" transform="translate(-396.119 -246.904)" fill="#2e5b9a"/>
    <path id="Path_17" data-name="Path 17" d="M2482.112,791.113c-.195,2.334-4.16,3.908-8.858,3.516s-8.346-2.6-8.152-4.937,4.161-3.908,8.859-3.515S2482.308,788.779,2482.112,791.113Z" transform="translate(-396.52 -246.431)" fill="#3e6bab"/>
    <path id="Path_18" data-name="Path 18" d="M2480.411,790.245c-.14,1.68-2.995,2.812-6.376,2.53s-6.009-1.873-5.868-3.553,3-2.812,6.377-2.53S2480.551,788.565,2480.411,790.245Z" transform="translate(-397.638 -246.645)" fill="#f0ceb4"/>
    <g id="Group_1" data-name="Group 1" transform="translate(1723.636 387.011)">
      <path id="Path_19" data-name="Path 19" d="M2007.086,685.49H1842.638a17.994,17.994,0,0,1-17.63-14.89L1803.56,552.21a18.1,18.1,0,0,1,17.63-21.457h164.448a17.994,17.994,0,0,1,17.63,14.891l21.448,118.39A18.1,18.1,0,0,1,2007.086,685.49Z" transform="translate(-1803.26 -530.753)" fill="#75a1de"/>
      <path id="Path_20" data-name="Path 20" d="M2014.769,666.63,1992.88,550.691a18.167,18.167,0,0,0-17.994-14.583h-167.12a18.468,18.468,0,0,0-4.2,15.459l22.2,120.874a18.554,18.554,0,0,0,18.249,15.2h152.754C2008.2,687.643,2016.833,677.564,2014.769,666.63Z" transform="translate(-1803.26 -532.906)" fill="#a8ceff"/>
      <path id="Path_21" data-name="Path 21" d="M2030.376,758.387h-31.219c-5.567,0-10.081-4.958-10.081-11.075V690.234c0-9.735-7.184-17.627-16.046-17.627h-16.307c-8.862,0-16.045,7.892-16.045,17.627v63.921c0,10.931,8.1,19.773,18.049,19.7l85.2-.585C2043.928,765.052,2037.86,758.387,2030.376,758.387Z" transform="translate(-1858.52 -587.797)" fill="#75a1de"/>
      <path id="Path_22" data-name="Path 22" d="M1942.755,692.559V755.5a19.4,19.4,0,0,0,17.991,19.346l83.15-.52c-.009-1.362-6.563-3.844-14.66-3.844h-33.77a10.9,10.9,0,0,1-10.9-10.905V692.559A17.357,17.357,0,0,0,1967.2,675.2h-7.092A17.357,17.357,0,0,0,1942.755,692.559Z" transform="translate(-1859.355 -588.84)" fill="#a8ceff"/>
    </g>
    <path id="Path_23" data-name="Path 23" d="M2223.745,801.117c12.567-6.981,27.924-4.654,33.509,2.327s6.516,11.635-6.05,11.635-37.7.931-41.886.466S2223.745,801.117,2223.745,801.117Z" transform="translate(-279.901 -250.768)" fill="#f09959"/>
    <path id="Path_24" data-name="Path 24" d="M2265,796.437c13.5-3.258,22.718,4.6,33.974,12.1,9.774,6.516,11.738,12.849.931,7.446-15.823-7.912-25.132-8.843-25.132-8.843Z" transform="translate(-305.484 -250.277)" fill="#f09959"/>
    <path id="Path_25" data-name="Path 25" d="M2220.578,802.655c-6.816,0-12.766-2.173-17.577-1.773s-20.047,16.038-17.642,17.241a5.509,5.509,0,0,0,.562.239,8.209,8.209,0,0,0,9.739-3.416c2.155-3.46,5.663-7.487,9.747-6.046a43.334,43.334,0,0,0,13.969,2.174Z" transform="translate(-268.191 -252.349)" fill="#f09959"/>
    <path id="Path_26" data-name="Path 26" d="M2236.243,814.445c-6.981-2.793,4.189-26.062,7.912-26.062s17.685,11.169,17.685,11.169-3.284,1.853-14.427-1.861c-2.793-.931-5.12,14.892-8.377,16.754S2236.243,814.445,2236.243,814.445Z" transform="translate(-290.445 -247.343)" fill="#f7a96f"/>
    <path id="Path_27" data-name="Path 27" d="M2406.76,372.383c-.648,25.624,8.082,29.957,14.189,33.437s32.414-2.268,36.276-8.606c9.879-16.214,1.563-31.333,3.772-31.1s4.23,6.541,9.993,14.732c.537.763,4.28,5.826,4.476,4.142,2.675-22.946,14.623-30.072,11.778-53.28-2.1-17.109-12.958-15.751-12.958-15.751s-7.006-14.317-28.816-12.69c-14.613,1.089-27.639,6.782-42.7,10.659s17.82,38.019,37.359,25.545,9.891,15,12.974,17.133,1.483.283,2.9,14.343-16.441,23.239-21.559,24.443c-16.362,3.848-19.1,1.149-22.681-5.013C2408.647,385.026,2406.76,372.383,2406.76,372.383Z" transform="translate(-370.522 -52.209)" fill="#2e5b9a"/>
    <path id="Path_28" data-name="Path 28" d="M2515.974,396.056c-1.877,6.458-6.465,10.63-10.246,9.318s-3.9-6.559-3.45-14.068c.4-6.769,6.465-10.63,10.246-9.318S2517.85,389.6,2515.974,396.056Z" transform="translate(-413.432 -83.817)" fill="#f09959"/>
    <g id="Group_6" data-name="Group 6" transform="translate(1655.325 229.283)">
      <g id="Group_3" data-name="Group 3">
        <path id="Rectangle_4" data-name="Rectangle 4" d="M4.6,0H140.593a4.6,4.6,0,0,1,4.6,4.6V61.013a4.6,4.6,0,0,1-4.6,4.6H4.6a4.6,4.6,0,0,1-4.6-4.6V4.6A4.6,4.6,0,0,1,4.6,0Z" fill="#b7e1ff"/>
        <path id="Rectangle_5" data-name="Rectangle 5" d="M3.719,0H133.537a3.719,3.719,0,0,1,3.719,3.719v37.86a3.719,3.719,0,0,1-3.719,3.719H3.72A3.72,3.72,0,0,1,0,41.579V3.719A3.719,3.719,0,0,1,3.719,0Z" transform="translate(3.97 17.24)" fill="#fff"/>
        <g id="Group_2" data-name="Group 2" transform="translate(5.986 4.829)">
          <rect id="Rectangle_6" data-name="Rectangle 6" width="5.688" height="5.12" rx="2.062" fill="#fff"/>
          <path id="Rectangle_7" data-name="Rectangle 7" d="M2.062,0H3.627a2.06,2.06,0,0,1,2.06,2.06v1A2.062,2.062,0,0,1,3.626,5.12H2.062A2.062,2.062,0,0,1,0,3.058v-1A2.062,2.062,0,0,1,2.062,0Z" transform="translate(10.342)" fill="#fff"/>
          <path id="Rectangle_8" data-name="Rectangle 8" d="M2.062,0H3.627A2.061,2.061,0,0,1,5.688,2.061v1A2.062,2.062,0,0,1,3.626,5.12H2.062A2.062,2.062,0,0,1,0,3.058v-1A2.062,2.062,0,0,1,2.062,0Z" transform="translate(20.685)" fill="#fff"/>
        </g>
        <path id="Path_29" data-name="Path 29" d="M1865.584,309.457h-72.6a2.172,2.172,0,1,1,0-4.344h72.6a2.172,2.172,0,1,1,0,4.344Z" transform="translate(-1729.942 -282.289)" fill="#b7e1ff"/>
        <path id="Path_30" data-name="Path 30" d="M1774.249,365.5h-72.6a2.172,2.172,0,0,1,0-4.344h72.6a2.172,2.172,0,1,1,0,4.344Z" transform="translate(-1693.214 -304.827)" fill="#b7e1ff"/>
        <rect id="Rectangle_9" data-name="Rectangle 9" width="8.997" height="4.344" rx="1.242" transform="translate(86.155 56.333)" fill="#b7e1ff"/>
        <rect id="Rectangle_10" data-name="Rectangle 10" width="8.998" height="4.344" rx="1.242" transform="translate(97.48 56.333)" fill="#b7e1ff"/>
        <path id="Path_31" data-name="Path 31" d="M1835.188,326.224H1714.96a1.474,1.474,0,0,1,0-2.948h120.228a1.474,1.474,0,1,1,0,2.948Z" transform="translate(-1698.848 -289.593)" fill="#b7e1ff"/>
        <path id="Path_32" data-name="Path 32" d="M1835.188,336.863H1714.96a1.474,1.474,0,0,1,0-2.948h120.228a1.474,1.474,0,1,1,0,2.948Z" transform="translate(-1698.848 -293.871)" fill="#b7e1ff"/>
      </g>
      <g id="Group_5" data-name="Group 5" transform="translate(32.809 46.072)">
        <path id="Rectangle_11" data-name="Rectangle 11" d="M4.605,0H140.593a4.6,4.6,0,0,1,4.6,4.6V61.013a4.605,4.605,0,0,1-4.605,4.605H4.605A4.605,4.605,0,0,1,0,61.013V4.605A4.605,4.605,0,0,1,4.605,0Z" fill="#9ec8ff"/>
        <path id="Rectangle_12" data-name="Rectangle 12" d="M3.719,0H133.538a3.72,3.72,0,0,1,3.72,3.72v37.86a3.719,3.719,0,0,1-3.719,3.719H3.72A3.72,3.72,0,0,1,0,41.579V3.719A3.719,3.719,0,0,1,3.719,0Z" transform="translate(3.97 17.24)" fill="#fff"/>
        <g id="Group_4" data-name="Group 4" transform="translate(5.986 4.829)">
          <path id="Rectangle_13" data-name="Rectangle 13" d="M2.062,0H3.627A2.061,2.061,0,0,1,5.688,2.061v1A2.062,2.062,0,0,1,3.626,5.12H2.062A2.062,2.062,0,0,1,0,3.058v-1A2.062,2.062,0,0,1,2.062,0Z" fill="#fff"/>
          <rect id="Rectangle_14" data-name="Rectangle 14" width="5.688" height="5.12" rx="2.062" transform="translate(10.342)" fill="#fff"/>
          <path id="Rectangle_15" data-name="Rectangle 15" d="M2.062,0H3.627A2.063,2.063,0,0,1,5.689,2.063v1A2.062,2.062,0,0,1,3.628,5.12H2.063A2.063,2.063,0,0,1,0,3.057v-1A2.062,2.062,0,0,1,2.062,0Z" transform="translate(20.684)" fill="#fff"/>
        </g>
        <path id="Path_33" data-name="Path 33" d="M1920.461,386.517h-72.6a2.172,2.172,0,1,1,0-4.344h72.6a2.172,2.172,0,0,1,0,4.344Z" transform="translate(-1784.818 -359.349)" fill="#9ec8ff"/>
        <path id="Path_34" data-name="Path 34" d="M1829.126,442.564h-72.6a2.172,2.172,0,0,1,0-4.344h72.6a2.172,2.172,0,1,1,0,4.344Z" transform="translate(-1748.09 -381.887)" fill="#9ec8ff"/>
        <rect id="Rectangle_16" data-name="Rectangle 16" width="8.998" height="4.344" rx="1.242" transform="translate(86.155 56.333)" fill="#9ec8ff"/>
        <rect id="Rectangle_17" data-name="Rectangle 17" width="8.997" height="4.344" rx="1.242" transform="translate(97.48 56.333)" fill="#9ec8ff"/>
        <path id="Path_35" data-name="Path 35" d="M1890.065,403.285H1769.837a1.474,1.474,0,1,1,0-2.947h120.228a1.474,1.474,0,1,1,0,2.947Z" transform="translate(-1753.724 -366.653)" fill="#9ec8ff"/>
        <path id="Path_36" data-name="Path 36" d="M1890.065,413.923H1769.837a1.473,1.473,0,1,1,0-2.947h120.228a1.473,1.473,0,1,1,0,2.947Z" transform="translate(-1753.724 -370.931)" fill="#9ec8ff"/>
      </g>
    </g>
    <g id="Group_10" data-name="Group 10" transform="translate(1848.76 183.381)">
      <path id="Rectangle_18" data-name="Rectangle 18" d="M9.342,0H121.668a9.342,9.342,0,0,1,9.342,9.342v35.3a9.342,9.342,0,0,1-9.342,9.342H9.341A9.341,9.341,0,0,1,0,44.646V9.342A9.342,9.342,0,0,1,9.342,0Z" fill="#9ec8ff"/>
      <path id="Path_39" data-name="Path 39" d="M2091.8,263.783v29.786l34.323-34.323S2092.5,263.783,2091.8,263.783Z" transform="translate(-2075.979 -217.942)" fill="#9ec8ff"/>
      <path id="Rectangle_19" data-name="Rectangle 19" d="M7.919,0H109.538a7.919,7.919,0,0,1,7.919,7.919V35.363a7.919,7.919,0,0,1-7.919,7.919H7.921A7.921,7.921,0,0,1,0,35.361V7.919A7.919,7.919,0,0,1,7.919,0Z" transform="translate(6.776 5.352)" fill="#fff"/>
      <path id="Path_40" data-name="Path 40" d="M2146.406,213.885h-53.056a2.327,2.327,0,0,1,0-4.654h53.056a2.327,2.327,0,0,1,0,4.654Z" transform="translate(-2075.666 -197.829)" fill="#9ec8ff"/>
      <rect id="Rectangle_20" data-name="Rectangle 20" width="100.992" height="2.614" rx="1.307" transform="translate(15.358 22.339)" fill="#9ec8ff"/>
      <rect id="Rectangle_21" data-name="Rectangle 21" width="100.992" height="2.614" rx="1.307" transform="translate(15.358 27.404)" fill="#9ec8ff"/>
      <g id="Group_9" data-name="Group 9" transform="translate(90.261 41.653)">
        <path id="Rectangle_22" data-name="Rectangle 22" d="M2.063,0H3.627A2.062,2.062,0,0,1,5.689,2.062v1A2.062,2.062,0,0,1,3.627,5.12H2.063A2.063,2.063,0,0,1,0,3.057V2.063A2.063,2.063,0,0,1,2.063,0Z" fill="#9ec8ff"/>
        <rect id="Rectangle_23" data-name="Rectangle 23" width="5.688" height="5.12" rx="2.062" transform="translate(10.342)" fill="#9ec8ff"/>
        <rect id="Rectangle_24" data-name="Rectangle 24" width="5.688" height="5.12" rx="2.062" transform="translate(20.684)" fill="#9ec8ff"/>
      </g>
    </g>
  </g>
</svg>
