<svg xmlns="http://www.w3.org/2000/svg" width="118.356" height="100" viewBox="0 0 118.356 100">
  <g id="Group_17" data-name="Group 17" transform="translate(-515 -1887)">
    <circle id="Ellipse_11" data-name="Ellipse 11" cx="50" cy="50" r="50" transform="translate(515 1887)" fill="#77a4bb"/>
    <path id="Path_87" data-name="Path 87" d="M94.272,76H9.084A9.1,9.1,0,0,0,0,85.084v54.5a9.1,9.1,0,0,0,9.084,9.084H94.272a9.094,9.094,0,0,0,9.084-9.084v-54.5A9.093,9.093,0,0,0,94.272,76ZM93,82.056,58.1,116.77a9.084,9.084,0,0,1-12.852-.006L10.356,82.056Zm-86.943,56.3V86.32l26.17,26.032Zm4.3,4.261,26.159-25.993,4.453,4.43a15.14,15.14,0,0,0,21.405.006l4.459-4.435L93,142.616Zm86.94-4.261-26.17-26L97.3,86.32Z" transform="translate(530 1825)" fill="#fff"/>
  </g>
</svg>
