<svg id="nodes" xmlns="http://www.w3.org/2000/svg" width="210" height="210" viewBox="0 0 210 210">
  <ellipse id="Ellipse_1" data-name="Ellipse 1" cx="12" cy="12.5" rx="12" ry="12.5" transform="translate(130 182)" fill="#e8f3ff"/>
  <path id="Path_64" data-name="Path 64" d="M345.582,458.57c0,11.091-13.559,16.444-21.152,8.544a14.028,14.028,0,0,0,14.864-19.273,12.286,12.286,0,0,1,6.288,10.73Z" transform="translate(-191.363 -264.156)" fill="#b9dcff"/>
  <ellipse id="Ellipse_2" data-name="Ellipse 2" cx="12" cy="12.5" rx="12" ry="12.5" transform="translate(56 182)" fill="#e8f3ff"/>
  <path id="Path_65" data-name="Path 65" d="M165.582,458.57c0,11.1-13.563,16.439-21.152,8.544a14.028,14.028,0,0,0,14.864-19.273A12.286,12.286,0,0,1,165.582,458.57Z" transform="translate(-85.191 -264.156)" fill="#b9dcff"/>
  <ellipse id="Ellipse_3" data-name="Ellipse 3" cx="12" cy="12.5" rx="12" ry="12.5" transform="translate(130 3)" fill="#e8f3ff"/>
  <path id="Path_66" data-name="Path 66" d="M345.582,22.57c0,11.091-13.559,16.444-21.152,8.544A14.028,14.028,0,0,0,339.294,11.84a12.286,12.286,0,0,1,6.288,10.73Z" transform="translate(-191.363 -6.984)" fill="#b9dcff"/>
  <ellipse id="Ellipse_4" data-name="Ellipse 4" cx="12" cy="12.5" rx="12" ry="12.5" transform="translate(56 3)" fill="#e8f3ff"/>
  <path id="Path_67" data-name="Path 67" d="M165.582,22.57c0,11.1-13.563,16.439-21.152,8.544A14.028,14.028,0,0,0,159.294,11.84,12.286,12.286,0,0,1,165.582,22.57Z" transform="translate(-85.191 -6.984)" fill="#b9dcff"/>
  <ellipse id="Ellipse_5" data-name="Ellipse 5" cx="12.5" cy="12" rx="12.5" ry="12" transform="translate(182 130)" fill="#e8f3ff"/>
  <path id="Path_68" data-name="Path 68" d="M473.582,330.57c0,11.1-13.563,16.439-21.152,8.544a14.028,14.028,0,0,0,14.864-19.273A12.286,12.286,0,0,1,473.582,330.57Z" transform="translate(-266.863 -188.656)" fill="#b9dcff"/>
  <ellipse id="Ellipse_6" data-name="Ellipse 6" cx="12.5" cy="12" rx="12.5" ry="12" transform="translate(182 56)" fill="#e8f3ff"/>
  <path id="Path_69" data-name="Path 69" d="M473.582,150.57c0,11.091-13.559,16.444-21.152,8.544a14.028,14.028,0,0,0,14.864-19.273A12.286,12.286,0,0,1,473.582,150.57Z" transform="translate(-266.863 -82.484)" fill="#b9dcff"/>
  <ellipse id="Ellipse_7" data-name="Ellipse 7" cx="12.5" cy="12" rx="12.5" ry="12" transform="translate(3 56)" fill="#e8f3ff"/>
  <path id="Path_70" data-name="Path 70" d="M37.582,150.57c0,11.1-13.563,16.439-21.152,8.544A14.028,14.028,0,0,0,31.294,139.84,12.286,12.286,0,0,1,37.582,150.57Z" transform="translate(-9.691 -82.484)" fill="#b9dcff"/>
  <ellipse id="Ellipse_8" data-name="Ellipse 8" cx="12.5" cy="12" rx="12.5" ry="12" transform="translate(3 130)" fill="#e8f3ff"/>
  <path id="Path_71" data-name="Path 71" d="M37.582,330.57c0,11.1-13.563,16.439-21.152,8.544A14.028,14.028,0,0,0,31.294,319.84,12.286,12.286,0,0,1,37.582,330.57Z" transform="translate(-9.691 -188.656)" fill="#b9dcff"/>
  <g id="Group_14" data-name="Group 14" transform="translate(0 0)">
    <path id="Path_72" data-name="Path 72" d="M197.7,126.678V83.322A15.582,15.582,0,1,0,186.042,54.95L155.05,23.958A15.6,15.6,0,0,0,141.914,0c-15.2,0-21.434,19.7-8.844,28.41L119.184,62.044,95.549,38.408l24.55-10.2a3.281,3.281,0,0,0-2.519-6.06L90.528,33.388l-9.354-9.355a15.58,15.58,0,1,0-26.224-.075L23.959,54.95A15.582,15.582,0,1,0,18.4,83.412L27.373,105,18.4,126.588a15.581,15.581,0,1,0,5.557,28.462L54.95,186.041A15.582,15.582,0,1,0,83.321,197.7h43.357a15.586,15.586,0,1,0,0-6.562H84.532l97.079-40.345c8.771,12.615,28.388,6.2,28.388-8.874A15.611,15.611,0,0,0,197.7,126.678ZM179.082,70.866,170,74.616,151.208,29.4l30.167,30.166a15.489,15.489,0,0,0-2.293,11.3Zm2.509,6.064a15.624,15.624,0,0,0,9.542,6.391v42.147L172.518,80.676Zm3.443,50.963L147.956,90.816l18.5-7.635Zm18.4-59.807a9.023,9.023,0,1,1-9.023-9.023A9.034,9.034,0,0,1,203.438,68.086ZM141.914,6.563a9.023,9.023,0,1,1-9.023,9.023A9.034,9.034,0,0,1,141.914,6.563Zm-2.78,24.356a15.387,15.387,0,0,0,5.6-.007l19.2,46.208-21,8.671L124.21,67.068ZM136.362,88.5,111.046,98.954,121.5,73.638ZM65.27,30.912a15.494,15.494,0,0,0,11.263-2.238l7.439,7.439L58.754,46.593ZM50.163,50.163,29.4,58.793,58.793,29.4Zm17.923-43.6a9.023,9.023,0,1,1-9.023,9.023A9.034,9.034,0,0,1,68.086,6.563ZM6.563,68.086a9.023,9.023,0,1,1,9.023,9.023A9.034,9.034,0,0,1,6.563,68.086Zm17.9,12.8A15.552,15.552,0,0,0,30.912,65.27l15.681-6.517-15.666,37.7Zm6.467,32.662,6.556,15.774L28.41,133.07a15.709,15.709,0,0,0-3.95-3.958Zm-.009,25.583L40,135.384,58.793,180.6,28.626,150.436a15.49,15.49,0,0,0,2.293-11.3Zm-24.356,2.78a9.023,9.023,0,1,1,9.023,9.023A9.034,9.034,0,0,1,6.563,141.914Zm61.523,61.523a9.023,9.023,0,1,1,9.023-9.023A9.034,9.034,0,0,1,68.086,203.438Zm73.828-18.047a9.023,9.023,0,1,1-9.023,9.023A9.034,9.034,0,0,1,141.914,185.391Zm-61.025.15a15.553,15.553,0,0,0-15.618-6.453l-19.2-46.208L58.854,127.6a3.281,3.281,0,0,0-2.5-6.066l-12.8,5.285L34.48,105l20.7-49.817,33.809-14.05,27.48,27.48-13.985,33.874L80.178,111.7a3.285,3.285,0,0,0,1.253,6.315c.925,0-.1.308,17.522-6.967l-23.408,56.7a3.281,3.281,0,1,0,6.066,2.5l25.9-62.738,33.874-13.985,39.939,39.939a15.493,15.493,0,0,0-2.238,11.263Zm113.526-34.6a9.023,9.023,0,1,1,9.023-9.023A9.034,9.034,0,0,1,194.414,150.938Z" transform="translate(0 0)" fill="#2e58ff"/>
    <path id="Path_73" data-name="Path 73" d="M163.432,283.98c-3.961,1.623-1.6,7.748,2.529,6.056a3.282,3.282,0,1,0-2.529-6.056Z" transform="translate(-95.2 -167.35)" fill="#2e58ff"/>
  </g>
</svg>
