<svg id="blockchain" xmlns="http://www.w3.org/2000/svg" width="204" height="204" viewBox="0 0 204 204">
  <g id="Group_15" data-name="Group 15" transform="translate(3.187 2.4)">
    <path id="Path_74" data-name="Path 74" d="M483.547,240.211v7.172a3.187,3.187,0,0,1-3.187,3.188h-7.172A3.187,3.187,0,0,1,470,247.383v-7.172a3.187,3.187,0,0,1,3.188-3.187h7.172A3.187,3.187,0,0,1,483.547,240.211Z" transform="translate(-285.922 -144.985)" fill="#8bc4ff"/>
    <path id="Path_75" data-name="Path 75" d="M426.547,414.211v7.172a3.187,3.187,0,0,1-3.187,3.188h-7.172A3.187,3.187,0,0,1,413,421.383v-7.172a3.187,3.187,0,0,1,3.188-3.187h7.172A3.187,3.187,0,0,1,426.547,414.211Z" transform="translate(-251.633 -249.657)" fill="#8bc4ff"/>
    <path id="Path_76" data-name="Path 76" d="M426.547,66.212v7.172a3.187,3.187,0,0,1-3.187,3.188h-7.172A3.187,3.187,0,0,1,413,73.383V66.212a3.187,3.187,0,0,1,3.188-3.187h7.172A3.187,3.187,0,0,1,426.547,66.212Z" transform="translate(-251.633 -40.313)" fill="#8bc4ff"/>
    <path id="Path_77" data-name="Path 77" d="M252.547,478.383a3.187,3.187,0,0,1-3.187,3.188h-7.172A3.187,3.187,0,0,1,239,478.383v-7.172a3.187,3.187,0,0,1,3.188-3.187h7.172a3.187,3.187,0,0,1,3.188,3.188Z" transform="translate(-146.961 -283.946)" fill="#8bc4ff"/>
    <path id="Path_78" data-name="Path 78" d="M252.547,16.383a3.187,3.187,0,0,1-3.187,3.188h-7.172A3.187,3.187,0,0,1,239,16.383V9.211a3.187,3.187,0,0,1,3.188-3.188h7.172a3.187,3.187,0,0,1,3.188,3.188Z" transform="translate(-146.961 -6.024)" fill="#8bc4ff"/>
    <path id="Path_79" data-name="Path 79" d="M78.547,421.383a3.187,3.187,0,0,1-3.187,3.188H68.188A3.187,3.187,0,0,1,65,421.383v-7.172a3.187,3.187,0,0,1,3.188-3.187h7.172a3.187,3.187,0,0,1,3.188,3.188Z" transform="translate(-42.289 -249.657)" fill="#8bc4ff"/>
    <path id="Path_80" data-name="Path 80" d="M78.547,73.383a3.187,3.187,0,0,1-3.187,3.188H68.188A3.187,3.187,0,0,1,65,73.383V66.212a3.187,3.187,0,0,1,3.188-3.187h7.172a3.187,3.187,0,0,1,3.188,3.187Z" transform="translate(-42.289 -40.313)" fill="#8bc4ff"/>
    <path id="Path_81" data-name="Path 81" d="M21.547,247.383a3.187,3.187,0,0,1-3.188,3.188H11.188A3.187,3.187,0,0,1,8,247.383v-7.172a3.187,3.187,0,0,1,3.188-3.187h7.172a3.187,3.187,0,0,1,3.188,3.188Z" transform="translate(-8 -144.985)" fill="#8bc4ff"/>
  </g>
  <path id="Path_82" data-name="Path 82" d="M243.071,199.728v25.606a3.19,3.19,0,0,1-1.594,2.761c-6.182,3.571-3.242,1.873-22.172,12.8a3.189,3.189,0,0,1-3.188,0c-18.846-10.884-16.062-9.276-22.171-12.8a3.189,3.189,0,0,1-1.595-2.761v-25.6a3.189,3.189,0,0,1,1.6-2.761c6.154-3.551,3.246-1.873,22.171-12.8a3.189,3.189,0,0,1,3.188,0c18.932,10.929,15.991,9.231,22.172,12.8a3.188,3.188,0,0,1,1.594,2.76Z" transform="translate(-115.711 -110.531)" fill="#a2d0ff"/>
  <path id="Path_83" data-name="Path 83" d="M281.361,247.3a3.193,3.193,0,0,1-1.594,2.761c-24.119,13.912-22.56,13.228-23.767,13.228V234.693l25.014-14.443C281.505,221.2,281.361,219.475,281.361,247.3Z" transform="translate(-154 -132.494)" fill="#8bc4ff"/>
  <path id="Path_84" data-name="Path 84" d="M243.248,198.285l-25.014,14.443L193.22,198.285c.589-1.161-.8-.146,23.424-14.125a3.188,3.188,0,0,1,3.184,0C243.891,198.024,242.661,197.127,243.248,198.285Z" transform="translate(-116.234 -110.529)" fill="#b9dcff"/>
  <path id="Path_85" data-name="Path 85" d="M197.625,92.039H196.54c-16.5-57.4-15.373-53.54-15.534-53.9.375-1.212.284-1.266.284-9.053a6.382,6.382,0,0,0-6.375-6.375c-7.75,0-7.831-.094-9.053.284-.365-.164,3.454.949-53.9-15.438V6.375A6.382,6.382,0,0,0,105.586,0H98.414a6.382,6.382,0,0,0-6.375,6.375V7.556c-57.383,16.4-53.535,15.275-53.9,15.438-1.213-.375-1.266-.284-9.053-.284a6.382,6.382,0,0,0-6.375,6.375c0,7.75-.094,7.831.284,9.053-.163.363.94-3.423-15.438,53.9H6.375A6.382,6.382,0,0,0,0,98.414v7.172a6.382,6.382,0,0,0,6.375,6.375H7.556c16.408,57.428,15.269,53.519,15.439,53.9-.377,1.218-.284,1.284-.284,9.056a6.382,6.382,0,0,0,6.375,6.375c7.75,0,7.831.094,9.053-.284.365.164-3.454-.949,53.9,15.438v1.181A6.382,6.382,0,0,0,98.414,204h7.172a6.382,6.382,0,0,0,6.375-6.375v-1.181c57.383-16.395,53.535-15.275,53.9-15.438,1.213.375,1.266.284,9.053.284a6.382,6.382,0,0,0,6.375-6.375c0-7.75.094-7.834-.284-9.056.17-.379-.973,3.519,15.535-53.9h1.085A6.382,6.382,0,0,0,204,105.586V98.414A6.382,6.382,0,0,0,197.625,92.039ZM166.1,161.59l-13.57-13.57,15.613-15.613v28.961A6.722,6.722,0,0,0,166.1,161.59ZM96.77,184.3l-9.785-9.785H98.812v9.563A6.721,6.721,0,0,0,96.77,184.3ZM37.9,42.41l13.57,13.57L35.859,71.594V42.633A6.722,6.722,0,0,0,37.9,42.41ZM107.23,19.7l9.785,9.785H105.187V19.922A6.721,6.721,0,0,0,107.23,19.7Zm54.137,148.441H132.406l15.613-15.613,13.57,13.57A6.879,6.879,0,0,0,161.367,168.141Zm-37.977,0h-18.2V133.125l14.854-8.576,23.47,23.47ZM42.41,166.1l13.57-13.57,15.613,15.613H42.633A6.8,6.8,0,0,0,42.41,166.1ZM60.488,148.02l23.47-23.47,14.854,8.576v35.016h-18.2ZM42.633,35.859H71.594L55.98,51.473,42.41,37.9a6.879,6.879,0,0,0,.223-2.043Zm37.977,0h18.2V70.875L83.958,79.45,60.488,55.98ZM124.174,114.8l-18.987,10.962V104.04l18.987-10.962ZM102,98.519l-9.406-5.43a3.187,3.187,0,0,0-3.187,5.521l9.406,5.43v21.725L79.826,114.8V89.2L102,76.4l19.159,11.061Zm3.188-27.644V35.859h18.2L143.512,55.98l-23.47,23.47Zm27.219-35.015h28.961a6.722,6.722,0,0,0,.223,2.043l-13.57,13.57ZM166.1,42.41a6.878,6.878,0,0,0,2.043.223V71.594L152.527,55.98Zm-4.731-13.324c0,.577,3.923.4-35.336.4L111.738,15.191a6.306,6.306,0,0,0,.191-1.014l49.489,14.14A6.359,6.359,0,0,0,161.367,29.086Zm-62.555.4H86.984L96.77,19.7a6.879,6.879,0,0,0,2.043.223ZM92.262,15.191,77.969,29.484H42.633a7.835,7.835,0,0,0-.051-1.167l49.489-14.14a6.306,6.306,0,0,0,.191,1.014ZM55.98,60.488,78.242,82.751l-3.2,1.846a3.188,3.188,0,0,0-1.594,2.761V98.813H35.859v-18.2Zm-26.5,38.324H19.922A6.8,6.8,0,0,0,19.7,96.77l9.785-9.785Zm-9.562,6.375h9.563v11.828L19.7,107.23A6.879,6.879,0,0,0,19.922,105.187Zm15.938,0H73.451v11.455a3.188,3.188,0,0,0,1.594,2.76l3.2,1.846L55.98,143.512,35.859,123.391ZM51.473,148.02,37.9,161.59a6.879,6.879,0,0,0-2.043-.223V132.406Zm-8.84,26.895c0-.577-3.923-.4,35.336-.4l14.293,14.293a6.308,6.308,0,0,0-.191,1.014l-49.489-14.14a6.356,6.356,0,0,0,.051-.769Zm62.555-.4h11.828L107.23,184.3a6.879,6.879,0,0,0-2.043-.223Zm6.551,14.293,14.293-14.293h35.336a7.884,7.884,0,0,0,.051,1.167l-49.489,14.14A6.305,6.305,0,0,0,111.738,188.809Zm36.281-45.3-22.262-22.262,3.2-1.846a3.187,3.187,0,0,0,1.594-2.76V105.187h6.364a3.188,3.188,0,0,0,0-6.375h-6.364V87.357a3.189,3.189,0,0,0-1.594-2.761l-3.2-1.846L148.02,60.488l20.121,20.121v18.2h-6.475a3.187,3.187,0,1,0,0,6.375h6.475v18.2Zm36.059-44.7h-9.562V86.984L184.3,96.77A6.88,6.88,0,0,0,184.078,98.812Zm-9.562,6.375h9.563a6.8,6.8,0,0,0,.223,2.043l-9.785,9.785Zm15.4-13.121a6.325,6.325,0,0,0-1.105.2L174.516,77.969c0-39.281-.177-35.336.4-35.336a6.424,6.424,0,0,0,.773-.051Zm-22.172-62.98h7.172v7.172h-7.172ZM98.414,6.375h7.172v7.172H98.414C98.41,6.274,98.373,6.375,98.414,6.375ZM29.086,29.086h7.172v7.172H29.086C29.082,29.061,29.045,29.086,29.086,29.086Zm-.769,13.5a7.858,7.858,0,0,0,1.167.051V77.969L15.191,92.262a6.306,6.306,0,0,0-1.014-.191ZM6.371,98.414h7.176v7.172H6.375Zm21.946,63-14.14-49.489a6.315,6.315,0,0,0,1.014-.191l14.293,14.293v35.336A7.837,7.837,0,0,0,28.317,161.418Zm.769,13.5v-7.172h7.172c0,.158,0,7.131,0,7.172Zm76.5,22.711H98.414v-7.172h7.172C105.59,197.726,105.627,197.625,105.586,197.625Zm69.328-22.711h-7.172v-7.172h7.172Zm.773-13.5a7.85,7.85,0,0,0-1.171-.051V126.031l14.293-14.293a6.363,6.363,0,0,0,1.105.2Zm21.938-55.833h-7.172V98.414h7.172C197.629,105.611,197.666,105.586,197.625,105.586Z" fill="#2e58ff"/>
  <path id="Path_86" data-name="Path 86" d="M366.857,248a3.188,3.188,0,1,0,3.188,3.188A3.19,3.19,0,0,0,366.857,248Z" transform="translate(-218.688 -149.188)" fill="#2e58ff"/>
</svg>
